<svg version="1.2" xmlns="http://www.w3.org/2000/svg" viewBox="0 0 64 64" width="64" height="64">
	<title>New Project</title>
	<style>
		.s0 { fill: #000000 } 
	</style>
	<path id="CJ" class="s0" aria-label="CJ"  d="m24.1 4.7c-11.8 0-22 8.9-22 20.8 0 11.2 9.2 20.7 19.9 20.7 5.2 0 12.4-1.4 13.1-2.5 0.8-1.4 2.6-5.5 2.9-7 0-0.7 0.1-1.6-0.7-1.6-0.4 0-2.4 0.5-2.6 1.2-0.3 1.1-1.1 3.2-3.3 4.6-2.3 1.4-5.1 2.3-7.4 2.3-9.4-0.4-14.6-9.9-14.6-19.2 0-8 4.4-16.6 13.3-16.6 3.7 0 7.5 1.1 8.7 2.3 0.8 0.7 2 2.4 2.2 4.9 0.2 1.4 1.3 1.8 2 1.9 0.5 0.1 1.1-0.9 1.1-1.4-0.1-3.3-0.2-4.9-0.4-6.7-0.2-0.9-0.4-1.8-0.8-1.9-1.1-0.3-4.1-0.7-5-1.1-1.2-0.4-4.4-0.7-6.4-0.7zm24.1 7.2v25.5c0 1.9 0.1 7-0.1 12.2-0.2 2.5-0.7 4-1.6 5.3-0.9 1.2-2.6 1.7-4.9 1.7-1.5 0-3.3-1.7-3.9-2.4-0.7-1-2.4-2-3.8-1.4-1.8 0.8-2.8 2.2-2.7 4.2 0 1.5 1.6 2.3 2.9 2.7 2.1 0.7 3.8 0.7 6.1 0.7 2.6 0 6.7-1.3 9.4-4.1 3.2-3.3 4.3-6.6 4.8-10.5 0.2-1.5 0.4-4 0.4-12.8v-21.1c0-1.1 0.6-1.9 1.3-2.5 1.2-1.1 2.5-1.5 4-2.2 0.6-0.2 0.8-2 0-2-3.6 0-5.1 0.2-8.3 0.2-3.5 0-5.1-0.2-8.8-0.2-0.6 0-0.7 1.8 0 2 1.5 0.7 2.5 1 3.8 2.2 0.9 0.7 1.4 1.3 1.4 2.5z"/>
</svg>